PathFileType	4	(X/Y/Z)	Run_400 01
DataRate	CameraRate	NumFrames	NumMarkers	Units	OrigDataRate	OrigDataStartFrame	OrigNumFrames
120	120	5	42	mm	120	348	128
Frame#	Time	LASI			RASI			LPSI			RPSI			RTH1			RTH2			RTH3			LTH1			LTH2			LTH3			RTB1			RTB2			RTB3			LTB1			LTB2			LTB3			RCAL			RTOE			RMT5			LCAL			LTOE			LMT5			LACR			RACR			CLAV			C7			RUA1			RUA2			RUA3			RLEL			RMEL			LUA1			LUA2			LUA3			LLEL			LMEL			RFAsuperior			RFAradius			RFAulna			LFAsuperior			LFAradius			LFAulna		
		X1	Y1	Z1	X2	Y2	Z2	X3	Y3	Z3	X4	Y4	Z4	X5	Y5	Z5	X6	Y6	Z6	X7	Y7	Z7	X8	Y8	Z8	X9	Y9	Z9	X10	Y10	Z10	X11	Y11	Z11	X12	Y12	Z12	X13	Y13	Z13	X14	Y14	Z14	X15	Y15	Z15	X16	Y16	Z16	X17	Y17	Z17	X18	Y18	Z18	X19	Y19	Z19	X20	Y20	Z20	X21	Y21	Z21	X22	Y22	Z22	X23	Y23	Z23	X24	Y24	Z24	X25	Y25	Z25	X26	Y26	Z26	X27	Y27	Z27	X28	Y28	Z28	X29	Y29	Z29	X30	Y30	Z30	X31	Y31	Z31	X32	Y32	Z32	X33	Y33	Z33	X34	Y34	Z34	X35	Y35	Z35	X36	Y36	Z36	X37	Y37	Z37	X38	Y38	Z38	X39	Y39	Z39	X40	Y40	Z40	X41	Y41	Z41	X42	Y42	Z42	

348	  2.900000	730.243685	1022.750853	-490.544802	714.213286	1008.703467	-242.569618	558.907368	1048.389167	-427.922082	557.231144	1050.043724	-338.329161	606.209698	834.334556	-216.296927	608.255221	704.312306	-248.389655	472.509350	627.772661	-249.180788	750.923872	904.760634	-533.076477	856.709743	851.079077	-502.733548	882.724718	704.269381	-511.482004	422.389877	419.637110	-308.558441	351.752383	387.085911	-255.096376	310.351874	276.914249	-324.807493	911.579776	496.311783	-432.499470	817.949752	436.833230	-493.138216	771.982515	362.913140	-425.553686	144.061866	239.241741	-334.222521	285.359564	 74.762377	-366.717324	244.682585	 76.330884	-275.962219	606.099404	322.781419	-443.590080	791.338388	210.398691	-415.455658	764.358039	199.743329	-503.865261	670.904516	1486.690224	-552.776509	736.291966	1467.455829	-193.983497	797.771574	1427.773092	-369.146506	673.489731	1519.402173	-369.174560	744.473300	1359.506726	-127.222047	774.062388	1297.468261	-133.170224	694.476440	1269.469548	-64.627636	746.734749	1202.013441	-41.616531	685.831029	1153.434437	-91.663356	610.259227	1458.846865	-602.361786	534.606732	1428.236182	-576.738331	551.163365	1400.808518	-651.978607	468.759267	1334.269247	-697.455207	419.903645	1310.143464	-625.774394	811.878972	1224.516488	-91.044563	895.301699	1265.576484	-229.474530	909.838280	1200.329525	-214.164314	529.085676	1295.978501	-694.319159	654.074172	1199.640103	-612.030571	617.576103	1154.408322	-642.856978	
349	  2.908333	731.188637	1028.056147	-490.787933	717.949999	1012.568677	-244.130222	561.414341	1054.152090	-428.424525	560.959751	1055.332313	-338.898729	603.054752	839.739718	-216.230566	601.592211	709.238230	-246.317432	464.520054	636.629371	-248.392763	752.330689	910.190276	-531.978190	857.228490	854.828573	-503.501202	879.465354	705.753712	-509.526812	410.748736	429.016709	-305.966795	338.843737	398.295849	-253.064776	295.628685	287.951188	-321.978293	920.966759	495.085329	-433.266040	831.923645	427.486684	-492.745523	793.751155	349.937756	-424.442796	133.449422	260.443462	-332.454759	259.152064	 83.440492	-364.169723	216.066386	 84.573633	-274.220608	631.670382	294.230038	-442.186092	826.675561	200.830567	-411.662695	800.961244	185.618111	-500.272440	667.892723	1490.488579	-553.076408	738.238636	1472.208527	-196.022287	797.157744	1432.335142	-371.504655	672.863810	1523.451071	-369.895344	747.977061	1364.857596	-128.739119	777.344720	1302.289001	-135.156805	699.410809	1275.072365	-64.234797	751.141283	1206.678548	-43.674067	687.261230	1159.126325	-91.500943	607.170433	1463.762484	-602.316527	531.520277	1433.703546	-576.903294	547.670151	1405.969693	-652.183704	464.749187	1339.501702	-697.558120	416.903105	1314.896899	-625.507085	814.294986	1229.058296	-95.578527	891.675165	1270.458861	-237.275310	906.979584	1205.311450	-222.651735	525.358628	1302.136881	-694.848531	652.225639	1207.204368	-613.809267	616.317957	1161.659579	-644.491625	
350	  2.916667	731.981146	1032.452885	-490.953342	720.841069	1016.554924	-245.664355	563.689783	1059.642309	-428.955365	563.873217	1060.697211	-339.425326	600.388425	844.961139	-216.037440	596.805336	713.553981	-243.789707	459.618383	643.585401	-247.765178	752.719748	914.157087	-531.687958	856.526708	856.887114	-505.589142	875.191908	705.919274	-507.780844	400.797127	436.179608	-304.344160	327.905593	407.898049	-251.826539	280.794748	298.908302	-320.072314	928.796069	493.118068	-433.766918	845.515238	417.670284	-492.232334	815.024675	337.357907	-423.185092	122.926196	282.211894	-331.372665	232.036329	 94.117875	-360.918156	186.653403	 96.202621	-272.562962	658.168356	266.613819	-440.456329	860.989601	192.845150	-408.010101	836.947175	173.243873	-496.984633	665.421911	1493.482259	-553.528097	739.912556	1476.282204	-197.898813	796.708314	1436.142009	-373.828880	672.333079	1526.826363	-370.649418	751.008721	1369.467743	-130.148733	780.156255	1306.316960	-136.669568	703.471581	1280.089253	-63.921381	754.548851	1210.633889	-45.417317	687.964902	1164.273310	-90.979349	604.582696	1467.787824	-602.441348	528.886119	1438.318336	-577.320875	544.713546	1410.266041	-652.566790	461.411329	1343.744759	-698.088303	414.538901	1318.521698	-625.561376	815.904925	1232.600033	-99.634592	887.655709	1273.757416	-244.139282	903.201773	1208.789523	-230.678411	522.313540	1307.381124	-695.681816	651.091682	1213.829683	-615.933469	615.758935	1167.953924	-646.459009	
351	  2.925000	732.537646	1035.691924	-490.925607	722.360971	1020.412581	-246.884619	565.468385	1064.707525	-429.282792	565.444165	1065.929706	-339.666276	598.671201	849.597025	-215.749940	594.360098	716.903684	-240.935279	457.736834	648.477290	-247.248921	752.025189	916.389528	-532.393200	854.490497	857.432392	-509.168201	870.385748	705.007995	-506.832723	392.169327	441.345393	-303.302637	318.316690	416.383128	-251.131092	265.819648	310.112025	-318.885684	934.882816	490.488238	-433.944083	858.576832	407.438863	-491.634421	835.357143	325.331434	-421.793166	111.621091	304.315384	-331.046216	203.766379	106.718975	-357.033854	157.127675	111.650114	-270.939659	685.111595	240.389926	-438.142897	893.809155	186.233623	-404.869409	871.547278	162.665484	-494.107959	663.476500	1495.668554	-554.114885	741.386393	1479.598776	-199.506097	796.383864	1439.285259	-376.077752	671.917610	1529.503241	-371.465918	753.526382	1373.188748	-131.444213	782.482856	1309.537417	-137.693482	706.501369	1284.384855	-63.847534	756.953039	1213.806803	-46.853952	688.022189	1168.749623	-90.267577	602.594735	1470.867500	-602.754055	526.799089	1441.947794	-578.019981	542.392188	1413.612760	-653.123217	458.830108	1346.943278	-698.917957	412.852143	1320.958344	-625.896316	816.741969	1235.052158	-103.198163	883.374900	1275.389515	-250.135046	898.765516	1210.656877	-237.820789	520.037748	1311.662032	-696.828662	650.736563	1219.446056	-618.378644	615.937613	1173.192304	-648.684277	
352	  2.933333	732.724605	1037.646255	-490.540717	722.696991	1023.672220	-247.686006	566.644093	1069.120752	-429.314720	565.820049	1070.639347	-339.571757	598.264254	853.169544	-215.491084	594.412388	719.075301	-238.167422	458.561397	651.308029	-246.782467	750.242970	916.778259	-533.996055	851.403577	856.512486	-513.779040	865.337648	703.097661	-507.028776	384.814482	445.144455	-302.358690	309.673564	424.490773	-250.774578	251.082730	322.001470	-318.195615	939.169047	487.183818	-433.960139	870.772908	397.003571	-491.069267	854.328790	314.014000	-420.351883	 99.192071	326.703785	-331.367734	175.346609	121.639277	-352.942839	128.789196	130.837399	-269.137125	711.930974	215.986402	-435.127827	924.700781	180.931787	-402.436075	904.078368	153.907958	-491.671409	662.051178	1497.076955	-554.847920	742.755480	1482.107036	-200.841166	796.188725	1441.783018	-378.182871	671.681206	1531.507994	-372.389691	755.442426	1375.943751	-132.576036	784.263371	1311.998834	-138.249113	708.319060	1287.864070	-64.138817	758.298775	1216.195422	-48.010745	687.394566	1172.495063	-89.574181	601.297450	1472.985474	-603.287019	525.350558	1444.443087	-579.013014	540.787792	1415.958247	-653.852398	457.078620	1349.079112	-699.871128	411.870632	1322.198810	-626.476869	816.808628	1236.363063	-106.267231	879.003118	1275.366667	-255.325196	894.020108	1210.848937	-243.434550	518.612235	1314.920440	-698.288216	651.211274	1224.009480	-621.107592	616.903531	1177.307736	-651.141143	
